<svg width="24" height="24" viewBox="0 0 24 24" fill="none" xmlns="http://www.w3.org/2000/svg">
<g clip-path="url(#clip0_1503_2728)">
<path d="M23.9011 9.1725C23.6074 7.97262 22.5949 6.99544 21.382 6.7415C21.2819 6.7205 21.1821 6.72419 21.0818 6.71219C20.1793 2.7995 16.7395 0 12.6677 0H11.3343C7.26319 0 3.82281 2.80006 2.91994 6.71231C2.28194 6.79319 1.67238 7.03719 1.17463 7.46025C0.428438 8.09506 0 9.02081 0 10C0 11.0423 0.502625 12.0267 1.33344 12.653V18.6667C1.33344 19.6495 1.87362 20.5 2.66687 20.9625V22C2.66687 23.1029 3.56406 24 4.66706 24C5.77006 24 6.66725 23.1029 6.66725 22V21.3333H17.3348V22C17.3348 23.1029 18.232 24 19.335 24C20.438 24 21.3352 23.1029 21.3352 22V20.9625C22.1284 20.5 22.6686 19.6495 22.6686 18.6667V12.6537C23.7344 11.8542 24.2259 10.5026 23.9011 9.1725ZM11.3333 1.33331H12.6666C16.0427 1.33331 18.9014 3.60962 19.7344 6.81544C19.3142 6.93794 18.9141 7.12937 18.5664 7.41144C17.7825 8.04813 17.3333 8.9915 17.3333 10V13.3333H6.66669V10.1426C6.66669 8.58444 5.65594 7.22656 4.26619 6.81175C5.09994 3.60837 7.95881 1.33331 11.3333 1.33331ZM18.6667 15.3333C18.6667 15.7011 18.3679 16 18 16H6C5.63219 16 5.33331 15.7012 5.33331 15.3333C5.33331 14.9655 5.63212 14.6666 6 14.6666H18C18.3678 14.6667 18.6667 14.9655 18.6667 15.3333ZM5.33331 22C5.33331 22.3678 5.0345 22.6667 4.66663 22.6667C4.29881 22.6667 4 22.3678 4 22V21.3333H5.33331V22ZM20 22C20 22.3678 19.7012 22.6667 19.3333 22.6667C18.9655 22.6667 18.6666 22.3679 18.6666 22V21.3333H20V22ZM21.6647 11.7207C21.4596 11.8398 21.3333 12.0592 21.3333 12.2969V18.6667C21.3333 19.4017 20.735 20 20 20H4C3.265 20 2.66669 19.4017 2.66669 18.6667V12.2969C2.66669 12.0599 2.54037 11.8405 2.33531 11.7207C1.70769 11.3555 1.33331 10.7122 1.33331 10C1.33331 9.41275 1.5905 8.85675 2.03837 8.47594C2.49281 8.08919 3.0755 7.93038 3.67381 8.028C4.61975 8.18162 5.33331 9.09113 5.33331 10.1426V13.4561C4.559 13.7323 4 14.4653 4 15.3333C4 16.4362 4.89713 17.3333 6 17.3333H18C19.1029 17.3333 20 16.4362 20 15.3333C20 14.4653 19.441 13.7323 18.6667 13.4561V10C18.6667 9.3945 18.9362 8.82875 19.4069 8.44662C19.8841 8.05925 20.4877 7.91669 21.1068 8.04625C21.8282 8.19731 22.4298 8.77738 22.6036 9.48894C22.8229 10.3854 22.4544 11.2611 21.6647 11.7207Z" fill="#7D7D7D"/>
</g>
<defs>
<clipPath id="clip0_1503_2728">
<rect width="24" height="24" fill="white"/>
</clipPath>
</defs>
</svg>
