<svg width="24" height="24" viewBox="0 0 24 24" fill="none" xmlns="http://www.w3.org/2000/svg">
<g clip-path="url(#clip0_1503_2739)">
<path d="M23.1247 0.848662C21.6867 -0.602353 19.2371 -0.121087 18.4471 1.74693C17.3482 1.10788 15.9128 1.25863 14.9726 2.19885L14.2994 2.87207L13.202 1.77463C12.7134 1.28605 11.9185 1.2861 11.43 1.77463L9.82479 3.37982C9.33513 3.86943 9.33499 4.66213 9.82479 5.15183L10.4752 5.80223C6.53388 7.75663 4.72362 9.89577 1.15577 13.4637C-0.325291 14.9447 -0.325432 17.3418 1.15577 18.823L5.22194 22.8892C6.70301 24.3703 9.1001 24.3704 10.5813 22.8892C14.1412 19.3293 16.2873 17.5131 18.2427 13.5698L18.8031 14.1302L18.8031 14.1303C19.2917 14.6187 20.0866 14.6188 20.5751 14.1302L22.1803 12.525C22.6688 12.0365 22.6688 11.2416 22.1803 10.753L21.0828 9.65554L21.7561 8.98227C22.6967 8.04173 22.847 6.60557 22.2073 5.50654C24.075 4.71308 24.5501 2.28679 23.1247 0.848662ZM9.58694 21.8948C8.6554 22.8263 7.14785 22.8264 6.21626 21.8948L2.15008 17.8287C1.21858 16.8971 1.21854 15.3896 2.15008 14.458C5.72266 10.8854 7.5333 8.72605 11.5282 6.85537L17.1896 12.5167C15.3156 16.5184 13.1495 18.3322 9.58694 21.8948ZM19.6891 13.0275L10.9275 4.26585L12.316 2.87732C12.6989 3.26019 20.6959 11.2573 21.0776 11.639L19.6891 13.0275ZM21.2963 4.31301C20.5256 4.42293 20.2118 5.36573 20.7618 5.91571C21.333 6.48702 21.333 7.4166 20.7618 7.98791L20.0885 8.66118L15.2938 3.86643L15.967 3.19316C16.5383 2.62185 17.468 2.62194 18.0392 3.19316C18.5898 3.74376 19.5314 3.42773 19.6421 2.65668C19.8121 1.47618 21.2726 0.977475 22.1259 1.83852C22.9452 2.66516 22.5024 4.14112 21.2963 4.31301Z" fill="#7D7D7D"/>
<path d="M9.1358 13.4093C8.86126 13.1348 8.41609 13.1347 8.14149 13.4093C7.8669 13.6839 7.8669 14.1291 8.14149 14.4037L9.64126 15.9035C9.77855 16.0408 9.95846 16.1094 10.1384 16.1094C10.7592 16.1094 11.0798 15.3534 10.6356 14.9091L9.1358 13.4093Z" fill="#7D7D7D"/>
<path d="M10.4584 11.0924C10.1838 11.367 10.1838 11.8122 10.4584 12.0868L11.9582 13.5866C12.0954 13.7239 12.2754 13.7925 12.4553 13.7925C13.076 13.7925 13.3968 13.0365 12.9525 12.5922L11.4527 11.0924C11.1782 10.8178 10.733 10.8179 10.4584 11.0924Z" fill="#7D7D7D"/>
<path d="M6.81896 15.7261C6.54441 15.4515 6.09919 15.4515 5.8246 15.7261C5.55 16.0007 5.55 16.4459 5.8246 16.7204L7.32436 18.2202C7.46166 18.3575 7.64157 18.4261 7.82152 18.4261C8.44219 18.4261 8.76296 17.6701 8.31868 17.2259L6.81896 15.7261Z" fill="#7D7D7D"/>
</g>
<defs>
<clipPath id="clip0_1503_2739">
<rect width="24" height="24" fill="white"/>
</clipPath>
</defs>
</svg>
