<svg width="24" height="24" viewBox="0 0 24 24" fill="none" xmlns="http://www.w3.org/2000/svg">
<g clip-path="url(#clip0_1503_2752)">
<path fill-rule="evenodd" clip-rule="evenodd" d="M12.9805 11.1794H16.8145C17.9191 11.1794 18.8145 12.0749 18.8145 13.1794V22C18.8145 23.1046 17.9191 24 16.8145 24H12.9805V11.1794ZM14.3867 12.5857V22.5937H17.4082V12.5857H14.3867Z" fill="#7D7D7D"/>
<path fill-rule="evenodd" clip-rule="evenodd" d="M12.9805 11.1794H16.8145C17.9191 11.1794 18.8145 12.0749 18.8145 13.1794V15.5596H12.9805V11.1794ZM14.3867 12.5857V14.1534H17.4082C17.4082 13.2876 16.7064 12.5857 15.8405 12.5857H14.3867Z" fill="#7D7D7D"/>
<path fill-rule="evenodd" clip-rule="evenodd" d="M5.18604 13.1794C5.18604 12.0749 6.08146 11.1794 7.18603 11.1794H14.3866V24H7.18604C6.08147 24 5.18604 23.1046 5.18604 22V13.1794ZM6.59229 12.5857V22.5937H12.9804V12.5857H6.59229Z" fill="#7D7D7D"/>
<path fill-rule="evenodd" clip-rule="evenodd" d="M13.2572 2.30566V12.5857H6.31543V3.86412H7.72168V11.1794H11.851V2.30566H13.2572Z" fill="#7D7D7D"/>
<path fill-rule="evenodd" clip-rule="evenodd" d="M5.18604 13.1794C5.18604 12.0749 6.08146 11.1794 7.18603 11.1794H14.3866V15.5416H5.18604V13.1794ZM6.59229 12.5857V14.1354H12.9804V12.5857H6.59229Z" fill="#7D7D7D"/>
<path fill-rule="evenodd" clip-rule="evenodd" d="M10.5041 1.54506C10.504 1.54516 10.5038 1.54526 10.5037 1.54536L8.12385 3.0824L8.1233 3.08275C7.71719 3.34396 7.59973 3.88491 7.86091 4.29102C8.12196 4.69691 8.66256 4.81449 9.06869 4.55368C9.06886 4.55357 9.06902 4.55347 9.06918 4.55336L11.449 3.01634L11.4495 3.01599C11.8557 2.75477 11.9731 2.21383 11.7119 1.80772C11.4508 1.40178 10.9102 1.28427 10.5041 1.54506ZM9.74299 0.36261C10.8023 -0.31867 12.2133 -0.0122874 12.8947 1.04701C13.5758 2.10604 13.2697 3.51664 12.2111 4.19819C12.2108 4.19836 12.2105 4.19853 12.2103 4.1987L9.83041 5.73577L9.82983 5.73614C8.77052 6.41739 7.35948 6.11105 6.67816 5.0517C5.99701 3.9926 6.30315 2.58191 7.36197 1.90042C7.36217 1.90029 7.36236 1.90016 7.36256 1.90003L9.74243 0.362975L9.74299 0.36261Z" fill="#7D7D7D"/>
<path fill-rule="evenodd" clip-rule="evenodd" d="M12.1459 17.1492C12.6643 16.6328 12.9804 15.9205 12.9804 14.8385H14.3866C14.3866 16.2305 13.9638 17.3232 13.1384 18.1454C12.3369 18.9439 11.2208 19.4212 9.95784 19.7389C8.75706 20.041 7.94076 20.3586 7.41114 20.8547C6.92212 21.3128 6.59229 22.0089 6.59229 23.2969C5.81563 23.2969 5.15815 22.6589 5.32112 21.8995C5.50472 21.044 5.87728 20.3646 6.4498 19.8284C7.26391 19.0658 8.39619 18.6817 9.61476 18.3752C10.7711 18.0843 11.6037 17.6893 12.1459 17.1492Z" fill="#7D7D7D"/>
</g>
<defs>
<clipPath id="clip0_1503_2752">
<rect width="24" height="24" fill="white"/>
</clipPath>
</defs>
</svg>
