<svg width="24" height="24" viewBox="0 0 24 24" fill="none" xmlns="http://www.w3.org/2000/svg">
<g clip-path="url(#clip0_1503_1710)">
<path fill-rule="evenodd" clip-rule="evenodd" d="M17.8752 2.29344C17.9072 2.03654 18.1414 1.85422 18.3983 1.88621C20.7915 2.18427 22.588 4.21836 22.588 6.63002V19.4874C22.588 20.4204 21.9018 21.2116 20.9781 21.3435L18.8909 21.6417C18.6346 21.6783 18.3972 21.5002 18.3606 21.2439C18.324 20.9876 18.502 20.7502 18.7583 20.7136L20.8456 20.4154L20.9118 20.8795L20.8456 20.4154C21.3074 20.3495 21.6505 19.9539 21.6505 19.4874V6.63002C21.6505 4.69131 20.2063 3.05613 18.2824 2.81652C18.0256 2.78453 17.8432 2.55034 17.8752 2.29344Z" fill="#7D7D7D"/>
<path fill-rule="evenodd" clip-rule="evenodd" d="M16.3925 0.172621C16.5561 0.373295 16.526 0.668562 16.3253 0.832118L12.283 4.12673C12.0823 4.29028 11.787 4.26019 11.6235 4.05952C11.4599 3.85884 11.49 3.56358 11.6907 3.40002L15.733 0.105412C15.9337 -0.058144 16.2289 -0.0280535 16.3925 0.172621Z" fill="#7D7D7D"/>
<path fill-rule="evenodd" clip-rule="evenodd" d="M15.733 0.105397C15.905 -0.0347734 16.1517 -0.0351716 16.3241 0.104443L18.6493 1.98708C18.8434 2.14425 18.8802 2.42601 18.733 2.62775L16.6257 5.51478L16.2471 5.23842L16.6257 5.51478C15.6187 6.89436 13.5505 6.86525 12.5829 5.45776L12.9656 5.19464L12.5829 5.45776L11.6006 4.02892C11.4623 3.82779 11.5015 3.55421 11.6907 3.40001L15.733 0.105397ZM16.0301 1.07267L12.6178 3.85379L13.3554 4.92665L12.9692 5.1922L13.3554 4.92665C13.9569 5.8015 15.2425 5.81964 15.8685 4.96206L17.7129 2.43515L16.0301 1.07267Z" fill="#7D7D7D"/>
<path fill-rule="evenodd" clip-rule="evenodd" d="M22.5834 18.7582C22.62 19.0145 22.442 19.2519 22.1857 19.2886L18.8911 19.7592C18.6348 19.7958 18.3973 19.6178 18.3607 19.3615C18.3241 19.1052 18.5022 18.8678 18.7585 18.8312L22.0531 18.3605C22.3094 18.3239 22.5468 18.5019 22.5834 18.7582Z" fill="#7D7D7D"/>
<path fill-rule="evenodd" clip-rule="evenodd" d="M12 3.27856C12.2589 3.27856 12.4688 3.48843 12.4688 3.74731V7.52867C12.4688 7.78756 12.2589 7.99742 12 7.99742C11.7411 7.99742 11.5312 7.78756 11.5312 7.52867V3.74731C11.5312 3.48843 11.7411 3.27856 12 3.27856Z" fill="#7D7D7D"/>
<path fill-rule="evenodd" clip-rule="evenodd" d="M12 3.27856C12.2589 3.27856 12.4688 3.48843 12.4688 3.74731V7.52867C12.4688 7.78756 12.2589 7.99742 12 7.99742C11.7411 7.99742 11.5312 7.78756 11.5312 7.52867V3.74731C11.5312 3.48843 11.7411 3.27856 12 3.27856Z" fill="#7D7D7D"/>
<path fill-rule="evenodd" clip-rule="evenodd" d="M6.12484 2.29344C6.15684 2.55034 5.97452 2.78453 5.71762 2.81652C3.7937 3.05613 2.34961 4.69131 2.34961 6.63002V19.4874C2.34961 19.9539 2.69268 20.3495 3.1545 20.4154L3.08822 20.8795L3.15451 20.4154L5.24176 20.7136C5.49804 20.7502 5.67612 20.9876 5.63951 21.2439C5.6029 21.5002 5.36546 21.6783 5.10918 21.6417L3.02194 21.3435C2.09823 21.2116 1.41211 20.4204 1.41211 19.4874V6.63002C1.41211 4.21836 3.20849 2.18427 5.60176 1.88621C5.85866 1.85422 6.09285 2.03654 6.12484 2.29344Z" fill="#7D7D7D"/>
<path fill-rule="evenodd" clip-rule="evenodd" d="M7.60785 0.172621C7.77141 -0.0280535 8.06668 -0.0581441 8.26735 0.105412L12.3097 3.40002C12.5103 3.56358 12.5404 3.85884 12.3769 4.05952C12.2133 4.26019 11.918 4.29028 11.7174 4.12673L7.67506 0.832118C7.47439 0.668562 7.4443 0.373295 7.60785 0.172621Z" fill="#7D7D7D"/>
<path fill-rule="evenodd" clip-rule="evenodd" d="M7.67623 0.104443C7.84867 -0.0351716 8.09537 -0.0347734 8.26735 0.105397L12.3097 3.40001C12.4989 3.55421 12.5381 3.82779 12.3998 4.02893L11.4174 5.45776C11.4174 5.45776 11.4174 5.45777 11.4174 5.45777C10.4498 6.86525 8.38164 6.89436 7.37466 5.51478L7.75328 5.23842L7.37466 5.51478L5.2674 2.62775C5.12015 2.42601 5.15694 2.14425 5.35105 1.98708L7.67623 0.104443ZM6.28749 2.43515L8.1319 4.96206C8.75786 5.81964 10.0434 5.8015 10.6449 4.92664L10.6449 4.92664L11.3825 3.85378L7.97023 1.07267L6.28749 2.43515Z" fill="#7D7D7D"/>
<path fill-rule="evenodd" clip-rule="evenodd" d="M1.41688 18.7582C1.45349 18.5019 1.69093 18.3239 1.94721 18.3605L5.24182 18.8312C5.4981 18.8678 5.67618 19.1052 5.63957 19.3615C5.60295 19.6178 5.36552 19.7958 5.10924 19.7592L1.81463 19.2886C1.55834 19.2519 1.38027 19.0145 1.41688 18.7582Z" fill="#7D7D7D"/>
<path fill-rule="evenodd" clip-rule="evenodd" d="M12 3.27856C12.2589 3.27856 12.4688 3.48843 12.4688 3.74731V7.52867C12.4688 7.78756 12.2589 7.99742 12 7.99742C11.7411 7.99742 11.5312 7.78756 11.5312 7.52867V3.74731C11.5312 3.48843 11.7411 3.27856 12 3.27856Z" fill="#7D7D7D"/>
<path fill-rule="evenodd" clip-rule="evenodd" d="M12 3.27856C12.2589 3.27856 12.4688 3.48843 12.4688 3.74731V7.52867C12.4688 7.78756 12.2589 7.99742 12 7.99742C11.7411 7.99742 11.5312 7.78756 11.5312 7.52867V3.74731C11.5312 3.48843 11.7411 3.27856 12 3.27856Z" fill="#7D7D7D"/>
<path fill-rule="evenodd" clip-rule="evenodd" d="M7.54395 0.46875C7.54395 0.209867 7.75381 0 8.0127 0H15.9878C16.2467 0 16.4566 0.209867 16.4566 0.46875C16.4566 0.727633 16.2467 0.9375 15.9878 0.9375H8.0127C7.75381 0.9375 7.54395 0.727633 7.54395 0.46875Z" fill="#7D7D7D"/>
<path fill-rule="evenodd" clip-rule="evenodd" d="M2.72352 3.40018C2.95966 3.29408 3.23711 3.39949 3.34321 3.63563L5.60212 8.66293C5.62926 8.72333 5.64329 8.78879 5.6433 8.85501L5.64424 22.3139C7.5569 23.3316 9.50437 23.296 11.5313 22.3024V20.7068C11.5313 20.4479 11.7411 20.2381 12 20.2381C12.2589 20.2381 12.4688 20.4479 12.4688 20.7068V22.5898C12.4688 22.7637 12.3725 22.9233 12.2186 23.0045C9.76682 24.2971 7.31739 24.3692 4.94092 22.9956C4.796 22.9119 4.70674 22.7572 4.70674 22.5898L4.70581 8.95554L2.48807 4.01987C2.38197 3.78373 2.48738 3.50629 2.72352 3.40018Z" fill="#7D7D7D"/>
<path fill-rule="evenodd" clip-rule="evenodd" d="M21.2765 3.40018C21.5126 3.50629 21.618 3.78373 21.5119 4.01987L19.2942 8.95554L19.2933 22.5898C19.2933 22.7572 19.204 22.9119 19.0591 22.9956C16.6826 24.3692 14.2332 24.2971 11.7814 23.0045C11.6275 22.9233 11.5312 22.7637 11.5312 22.5898V20.7068C11.5312 20.4479 11.7411 20.2381 12 20.2381C12.2589 20.2381 12.4687 20.4479 12.4687 20.7068V22.3024C14.4956 23.296 16.4431 23.3316 18.3558 22.3139L18.3567 8.85501C18.3567 8.78879 18.3708 8.72333 18.3979 8.66293L20.6568 3.63563C20.7629 3.39949 21.0404 3.29408 21.2765 3.40018Z" fill="#7D7D7D"/>
</g>
<defs>
<clipPath id="clip0_1503_1710">
<rect width="24" height="24" fill="white"/>
</clipPath>
</defs>
</svg>
