<svg width="20" height="20" viewBox="0 0 20 20" fill="none" xmlns="http://www.w3.org/2000/svg">
<path d="M14.4226 6.24273C10.8527 4.07082 12.5267 1.00531 12.5986 0.877891C12.7028 0.696563 12.7025 0.473477 12.5977 0.292461C12.493 0.111445 12.2997 0 12.0906 0C10.2529 0 8.81396 0.522109 7.8136 1.55187C6.10426 3.31145 6.18355 6.05 6.21738 7.21945C6.22113 7.34898 6.22438 7.46094 6.22438 7.54406C6.22438 8.41234 6.36367 9.21395 6.4866 9.92117C6.56582 10.3769 6.63422 10.7705 6.64637 11.08C6.65938 11.4112 6.59891 11.4871 6.59633 11.4902C6.5877 11.5004 6.51582 11.5387 6.32149 11.5387C6.09984 11.5387 5.93644 11.4663 5.79168 11.3039C5.22621 10.6699 5.1871 8.93855 5.29523 7.99664C5.31457 7.83055 5.26203 7.66414 5.15082 7.5393C5.03964 7.41445 4.88042 7.34305 4.71324 7.34305C3.19194 7.34305 2.05518 9.83086 2.05518 12.0552C2.05518 13.1009 2.26549 14.1252 2.6803 15.0998C3.08131 16.0419 3.65315 16.8922 4.37999 17.627C5.89375 19.1572 7.88958 20 9.9999 20C12.1187 20 14.114 19.1691 15.6183 17.6605C17.1187 16.1559 17.945 14.1651 17.945 12.0552C17.945 9.36289 15.8385 7.1041 14.4226 6.24273ZM9.9999 18.8281C6.32867 18.8281 3.2271 15.7265 3.2271 12.0552C3.2271 11.1623 3.44014 10.2251 3.81159 9.48387C3.89835 9.3107 3.98737 9.16215 4.07522 9.03699C4.08503 10.0037 4.23815 11.3214 4.91609 12.0828C5.28179 12.4934 5.76777 12.7105 6.32152 12.7105C6.83883 12.7105 7.23305 12.5537 7.49313 12.2445C7.97938 11.6664 7.83013 10.8077 7.64122 9.72047C7.52641 9.05992 7.39629 8.31121 7.39629 7.54402C7.39629 7.44391 7.39282 7.32418 7.38883 7.18547C7.35676 6.07773 7.29001 3.7727 8.65419 2.36844C9.26658 1.73801 10.1216 1.35434 11.2032 1.22305C11.0811 1.62852 10.9758 2.14324 10.9718 2.71957C10.9628 3.98941 11.4485 5.80508 13.8135 7.24391C14.9578 7.94004 16.7731 9.8618 16.7731 12.0552C16.7731 15.7898 13.7346 18.8281 9.9999 18.8281Z" fill="url(#paint0_linear_1663_317)"/>
<defs>
<linearGradient id="paint0_linear_1663_317" x1="19.8518" y1="7.7" x2="1.41862" y2="12.4073" gradientUnits="userSpaceOnUse">
<stop stop-color="#4f4f4f"/>
<stop offset="1" stop-color="#4f4f4f"/>
</linearGradient>
</defs>
</svg>
