<svg width="24" height="24" viewBox="0 0 24 24" fill="none" xmlns="http://www.w3.org/2000/svg">
<g clip-path="url(#clip0_1503_2768)">
<path fill-rule="evenodd" clip-rule="evenodd" d="M19.3861 0.621948L23.3781 4.61394L10.4607 17.5313L4.93184 22.5593C3.77155 23.6145 2.21825 24.1282 0.657593 23.9727L0.0843712 23.9156L0.0272819 23.3424C-0.128145 21.7818 0.38552 20.2285 1.44073 19.0682L6.46873 13.5393L19.3861 0.621948ZM7.48719 14.5106L2.48164 20.0148C1.83366 20.7273 1.45945 21.6385 1.41211 22.5879C2.36149 22.5406 3.27269 22.1664 3.98521 21.5184L9.48942 16.5128L21.3883 4.61394L19.3861 2.61172L7.48719 14.5106Z" fill="#7D7D7D"/>
<path fill-rule="evenodd" clip-rule="evenodd" d="M22.3853 1.61474C22.1083 1.33774 21.6592 1.33771 21.3821 1.61476L20.3831 2.61381L19.3882 1.61893L20.3872 0.619876C21.2137 -0.206606 22.5537 -0.206644 23.3802 0.619876M23.3802 0.619897C24.2067 1.44638 24.2067 2.78635 23.3802 3.61282C23.3802 3.61282 23.3802 3.61283 23.3802 3.61284L22.3811 4.61187L21.3862 3.61698L22.3853 2.61793L22.3853 2.61791C22.6623 2.34093 22.6623 1.89181 22.3853 1.61476L22.3853 1.61474" fill="#7D7D7D"/>
<path fill-rule="evenodd" clip-rule="evenodd" d="M21.6871 8.10809L20.9153 5.61808L22.2592 5.20154L23.2824 8.50257L18.155 13.6299L17.1602 12.635L21.6871 8.10809Z" fill="#7D7D7D"/>
<path fill-rule="evenodd" clip-rule="evenodd" d="M9.47757 17.5195L6.48047 14.5224L7.47535 13.5275L10.4725 16.5246L9.47757 17.5195Z" fill="#7D7D7D"/>
<path fill-rule="evenodd" clip-rule="evenodd" d="M11.4771 15.5201L8.47998 12.523L9.47487 11.5281L12.472 14.5252L11.4771 15.5201Z" fill="#7D7D7D"/>
<path fill-rule="evenodd" clip-rule="evenodd" d="M3.96121 22.5363L1.46387 20.0389L2.45876 19.0441L4.95611 21.5415L3.96121 22.5363Z" fill="#7D7D7D"/>
<path fill-rule="evenodd" clip-rule="evenodd" d="M19.8877 7.10942L16.8906 4.11232L17.8855 3.11743L20.8826 6.11454L19.8877 7.10942Z" fill="#7D7D7D"/>
</g>
<defs>
<clipPath id="clip0_1503_2768">
<rect width="24" height="24" fill="white"/>
</clipPath>
</defs>
</svg>
