<svg width="24" height="24" viewBox="0 0 24 24" fill="none" xmlns="http://www.w3.org/2000/svg">
<g clip-path="url(#clip0_1503_2783)">
<path fill-rule="evenodd" clip-rule="evenodd" d="M23.6643 14.1837C23.9082 13.8816 23.8609 13.4389 23.5587 13.195C23.1215 12.8421 22.6544 12.516 22.1586 12.2203L21.7994 12.8225L22.1586 12.2203C18.8916 10.2714 15.0721 10.0551 11.7712 11.2994C11.4079 11.4364 11.2243 11.842 11.3613 12.2054C11.4983 12.5687 11.9039 12.7523 12.2672 12.6153C15.1846 11.5156 18.5545 11.7078 21.4382 13.428C21.877 13.6897 22.2897 13.978 22.6755 14.2893C22.9777 14.5332 23.4204 14.4859 23.6643 14.1837Z" fill="#7D7D7D"/>
<path fill-rule="evenodd" clip-rule="evenodd" d="M9.63068 18.1668C9.89215 17.8797 9.87136 17.435 9.58425 17.1735C8.44171 16.133 7.37553 14.9099 6.43549 13.5213C4.814 11.1262 3.79033 8.56709 3.34835 6.11411C3.27949 5.73194 2.91386 5.47795 2.53169 5.54681C2.14952 5.61567 1.89553 5.9813 1.96439 6.36347C2.44266 9.0179 3.54449 11.7594 5.271 14.3097L5.271 14.3097C6.27262 15.7892 7.41162 17.0969 8.63739 18.2132C8.9245 18.4747 9.36921 18.4539 9.63068 18.1668Z" fill="#7D7D7D"/>
<path fill-rule="evenodd" clip-rule="evenodd" d="M11.4151 23.7184C11.6705 24.0109 12.1147 24.041 12.4072 23.7857C14.4392 22.012 16.2255 19.6585 17.5269 16.8672C18.3312 15.1423 18.8881 13.3837 19.2088 11.6561C19.2797 11.2743 19.0276 10.9074 18.6458 10.8365C18.264 10.7656 17.8971 11.0177 17.8262 11.3995C17.5275 13.0088 17.0073 14.654 16.2524 16.273L16.2524 16.273C15.0301 18.8945 13.3602 21.0872 11.4825 22.7263C11.1899 22.9816 11.1598 23.4258 11.4151 23.7184Z" fill="#7D7D7D"/>
<path fill-rule="evenodd" clip-rule="evenodd" d="M4.42123 21.1315C4.56699 21.4915 4.97693 21.6651 5.33687 21.5193C7.67622 20.5719 9.73784 18.8809 11.1301 16.547L11.1301 16.547C11.9782 15.1252 12.4988 13.5972 12.713 12.0521C12.7663 11.6675 12.4977 11.3124 12.1131 11.2591C11.7284 11.2058 11.3734 11.4744 11.3201 11.8591C11.1313 13.2211 10.6724 14.5693 9.92238 15.8266C8.69253 17.8882 6.87412 19.3796 4.80901 20.2159C4.44908 20.3617 4.27547 20.7716 4.42123 21.1315Z" fill="#7D7D7D"/>
<path fill-rule="evenodd" clip-rule="evenodd" d="M12.5499 12.4379C12.7918 12.1342 12.7416 11.6918 12.4378 11.4499C9.99881 9.50791 8.4375 6.51528 8.4375 3.15752C8.4375 2.64659 8.47363 2.14445 8.54335 1.65347C8.59794 1.269 8.33052 0.913076 7.94605 0.858487C7.56158 0.803896 7.20565 1.07132 7.15106 1.45579C7.07209 2.012 7.03125 2.5802 7.03125 3.15752C7.03125 6.96169 8.80219 10.3527 11.5619 12.55C11.8657 12.7919 12.308 12.7417 12.5499 12.4379Z" fill="#7D7D7D"/>
<path fill-rule="evenodd" clip-rule="evenodd" d="M7.6425 6.88342C7.77724 7.24762 8.18171 7.43364 8.54591 7.2989C10.081 6.73098 11.7605 6.33483 13.5375 6.15377L13.5376 6.15377C16.4151 5.8605 19.1537 6.1713 21.5233 6.94422C21.8925 7.06464 22.2894 6.86297 22.4099 6.49379C22.5303 6.12461 22.3286 5.72771 21.9594 5.60729C19.3952 4.77089 16.4589 4.44251 13.395 4.75477C11.5015 4.94768 9.70595 5.37034 8.05799 5.98001C7.69378 6.11475 7.50777 6.51922 7.6425 6.88342Z" fill="#7D7D7D"/>
<path fill-rule="evenodd" clip-rule="evenodd" d="M0 12C0 18.6274 5.37257 24 12 24C18.6274 24 24 18.6274 24 12C24 5.37257 18.6274 1.90735e-06 12 1.90735e-06C5.37257 1.90735e-06 0 5.37257 0 12ZM12 22.5938C6.14922 22.5938 1.40625 17.8508 1.40625 12C1.40625 6.14922 6.14922 1.40625 12 1.40625C17.8508 1.40625 22.5937 6.14922 22.5937 12C22.5937 17.8508 17.8508 22.5938 12 22.5938Z" fill="#7D7D7D"/>
</g>
<defs>
<clipPath id="clip0_1503_2783">
<rect width="24" height="24" fill="white"/>
</clipPath>
</defs>
</svg>
